<svg width="550" height="100" viewBox="0 0 550 100" fill="none" xmlns="http://www.w3.org/2000/svg" xmlns:xlink="http://www.w3.org/1999/xlink">
<line x1="52" y1="49" x2="496" y2="49" stroke="#E5E5E5" stroke-width="1" stroke-miterlimit="3.999327"/>
<circle cx="50" cy="50" r="50" fill="#FCBB3A"/>
<path d="M29.374,43.191C28.236,41.297 25.779,40.685 23.885,41.823C21.992,42.961 21.38,45.419 22.518,47.312L29.374,43.191ZM77.704,37.045C79.342,35.562 79.467,33.033 77.984,31.395C76.501,29.758 73.971,29.633 72.334,31.116L77.704,37.045ZM42.503,63.529L39.817,60.564L42.503,63.529ZM22.518,47.312L32.961,64.686L39.817,60.564L29.374,43.191L22.518,47.312ZM45.188,66.494L77.704,37.045L72.334,31.116L39.817,60.564L45.188,66.494ZM32.961,64.686C35.557,69.005 41.452,69.877 45.188,66.494L39.817,60.564L39.817,60.564L32.961,64.686Z" transform="rotate(0.376 50.483 50.438)" fill="#FFFFFF"/>
<circle cx="280" cy="50" r="50" fill="#FCBB3A"/>
<path d="M259.374,43.191C258.236,41.297 255.779,40.685 253.885,41.823C251.992,42.961 251.38,45.419 252.518,47.312L259.374,43.191ZM307.704,37.045C309.342,35.562 309.467,33.033 307.984,31.395C306.501,29.758 303.971,29.633 302.334,31.116L307.704,37.045ZM272.503,63.529L269.817,60.564L272.503,63.529ZM252.518,47.312L262.961,64.686L269.817,60.564L259.374,43.191L252.518,47.312ZM275.188,66.494L307.704,37.045L302.334,31.116L269.817,60.564L275.188,66.494ZM262.961,64.686C265.557,69.005 271.452,69.877 275.188,66.494L269.817,60.564L269.817,60.564L262.961,64.686Z" transform="rotate(0.376 280.483 50.438)" fill="#FFFFFF"/>
<circle cx="500" cy="50" r="50" fill="#FCBB3A"/>
<path d="M479.374,43.191C478.236,41.297 475.779,40.685 473.885,41.823C471.992,42.961 471.38,45.419 472.518,47.312L479.374,43.191ZM527.704,37.045C529.342,35.562 529.467,33.033 527.984,31.395C526.501,29.758 523.971,29.633 522.334,31.116L527.704,37.045ZM492.503,63.529L489.817,60.564L492.503,63.529ZM472.518,47.312L482.961,64.686L489.817,60.564L479.374,43.191L472.518,47.312ZM495.188,66.494L527.704,37.045L522.334,31.116L489.817,60.564L495.188,66.494ZM482.961,64.686C485.557,69.005 491.452,69.877 495.188,66.494L489.817,60.564L489.817,60.564L482.961,64.686Z" transform="rotate(0.376 500.483 50.438)" fill="#FFFFFF"/>
</svg>
