<svg width="58" height="56" viewBox="0 0 58 56" fill="none" xmlns="http://www.w3.org/2000/svg" xmlns:xlink="http://www.w3.org/1999/xlink">
<path d="M26.098,1.354C26.697,-0.489 29.303,-0.489 29.902,1.354L35.297,17.957C35.564,18.781 36.332,19.339 37.199,19.339L54.656,19.339C56.594,19.339 57.399,21.818 55.832,22.957L41.708,33.218C41.007,33.727 40.714,34.63 40.982,35.454L46.376,52.057C46.975,53.9 44.866,55.432 43.299,54.293L29.176,44.032C28.475,43.523 27.525,43.523 26.824,44.032L12.701,54.293C11.134,55.432 9.025,53.9 9.624,52.057L15.018,35.454C15.286,34.63 14.993,33.727 14.292,33.218L0.168,22.957C-1.399,21.818 -0.594,19.339 1.344,19.339L18.801,19.339C19.668,19.339 20.436,18.781 20.703,17.957L26.098,1.354Z" fill="#FFCC47"/>
</svg>
