<svg width="58" height="40" viewBox="0 0 58 40" fill="none" xmlns="http://www.w3.org/2000/svg" xmlns:xlink="http://www.w3.org/1999/xlink">
<path d="M7.374,13.191C6.236,11.297 3.779,10.685 1.885,11.823C-0.008,12.961 -0.62,15.419 0.518,17.312L7.374,13.191ZM55.704,7.045C57.342,5.562 57.467,3.033 55.984,1.395C54.501,-0.242 51.971,-0.367 50.334,1.116L55.704,7.045ZM20.503,33.529L17.817,30.564L20.503,33.529ZM0.518,17.312L10.961,34.686L17.817,30.564L7.374,13.191L0.518,17.312ZM23.188,36.494L55.704,7.045L50.334,1.116L17.817,30.564L23.188,36.494ZM10.961,34.686C13.557,39.005 19.452,39.877 23.188,36.494L17.817,30.564L17.817,30.564L10.961,34.686Z" transform="rotate(0.376 28.483 20.438)" fill="#FFFFFF"/>
</svg>
